<?xml version="1.0" encoding="UTF-8"?>
<svg id="Capa_1" xmlns="http://www.w3.org/2000/svg" viewBox="0 0 145.88 146.18">
  <defs>
    <style>
      .cls-1 {
        fill: #fff;
      }
    </style>
  </defs>
  <path class="cls-1" d="M.03,139.39c1.51-6.46,3.17-13.55,4.81-20.65,2.44-10.52,4.96-21.02,7.26-31.57.87-3.98,3.17-5.53,7.04-5.91,21.66-2.13,43.31-4.36,64.95-6.66,1.25-.13,2.4-1.21,3.6-1.85-1.2-.65-2.35-1.76-3.6-1.88-20.85-2.06-41.71-4.04-62.59-5.92-7.47-.67-8.39-1.31-10.04-8.51C7.81,40.53,4.17,24.6.46,8.7-.2,5.91-.49,3.32,1.99,1.28c2.48-2.03,4.98-1.34,7.56-.05,44.07,22.1,88.18,44.14,132.18,66.38,1.94.98,4.11,3.68,4.15,5.61.03,1.91-2.1,4.7-4.01,5.66-44.15,22.22-88.39,44.26-132.64,66.29-5.15,2.57-9.51.07-9.21-5.79Z"/>
</svg>